<?xml version="1.0" encoding="UTF-8"?> <svg xmlns="http://www.w3.org/2000/svg" width="138" height="138" viewBox="0 0 138 138" fill="none"><rect x="3.5" y="3.5" width="131" height="131" rx="16.5" fill="white"></rect><rect x="3.5" y="3.5" width="131" height="131" rx="16.5" stroke="#0056F9" stroke-width="7"></rect><circle cx="69" cy="69" r="50" fill="#0056F9"></circle><path fill-rule="evenodd" clip-rule="evenodd" d="M102.997 78.5732C101.369 79.5984 99.4511 79.7255 97.9935 78.9066C96.1418 77.8655 95.1237 75.427 95.1237 72.0359V61.8899C95.1237 56.9904 93.1787 53.504 89.9263 52.5627C84.4146 50.9635 80.2695 57.6799 78.7116 60.2023L68.9909 75.8988V56.7136C68.8816 52.2995 67.4422 49.6592 64.7091 48.8631C62.9007 48.3368 60.195 48.5478 57.5667 52.5536L35.7885 87.381C32.873 81.8685 31.3531 75.7304 31.361 69.5C31.361 48.5206 48.2423 31.4539 68.9909 31.4539C89.7396 31.4539 106.619 48.5206 106.619 69.5C106.619 69.5363 106.628 69.5681 106.63 69.6021C106.63 69.6384 106.623 69.6701 106.625 69.7064C106.821 73.7689 105.5 76.999 102.997 78.5732ZM114.98 69.5023V69.3957L114.977 69.2913C114.861 43.7413 94.2788 23 68.9887 23C43.6325 23 23 43.8592 23 69.5C23 95.1385 43.6325 116 68.9909 116C80.627 116 91.7325 111.595 100.257 103.599C101.952 102.011 102.052 99.3371 100.481 97.6268C100.111 97.2206 99.6631 96.892 99.1641 96.6602C98.6651 96.4284 98.1246 96.2982 97.5744 96.277C97.0242 96.2559 96.4753 96.3444 95.9599 96.5372C95.4444 96.73 94.9728 97.0233 94.5726 97.4C87.6626 103.917 78.5074 107.548 68.9909 107.546C57.881 107.546 47.8847 102.649 40.9905 94.8822L60.63 63.4754V77.9539C60.63 84.9085 63.338 87.1564 65.6087 87.8142C67.8818 88.472 71.355 88.0229 75.0014 82.1253L85.8039 64.6844C86.1501 64.1219 86.469 63.6365 86.7605 63.2168V72.0359C86.7605 78.5369 89.3752 83.7358 93.9326 86.2967C98.0413 88.6058 103.207 88.3971 107.416 85.7523C112.518 82.5427 115.267 76.6292 114.98 69.5023Z" fill="white"></path></svg> 