<?xml version="1.0" encoding="UTF-8"?> <svg xmlns="http://www.w3.org/2000/svg" width="138" height="138" viewBox="0 0 138 138" fill="none"><rect x="3.5" y="3.5" width="131" height="131" rx="16.5" fill="white"></rect><rect x="3.5" y="3.5" width="131" height="131" rx="16.5" stroke="#0056F9" stroke-width="7"></rect><circle cx="69" cy="69" r="50" fill="#0056F9"></circle><path d="M68.8 24.0004C43.9419 24.1171 23.8921 44.3502 24.0004 69.2C24.1171 94.0498 44.3502 114.108 69.2 114C94.0498 113.883 114.108 93.6498 114 68.8C113.883 43.9419 93.6498 23.8921 68.8 24.0004ZM63.1001 66.7917C58.6584 66.7917 55.0501 63.1917 55.0501 58.7501C55.0501 54.3085 58.6501 50.7085 63.1001 50.7085C67.5417 50.7085 71.1416 54.3085 71.1416 58.7501C71.1416 63.1917 67.5417 66.7917 63.1001 66.7917ZM69.5167 75.4916L69.5583 75.4416L69.6 75.3916C71.9 76.8749 74.5166 77.3916 77.1333 77.4749C79.7582 77.5416 82.4249 77.3499 85.0582 76.8166C87.6832 76.2749 90.2665 75.4666 92.7581 74.4333C94.1581 73.8583 95.5497 73.225 96.8747 72.4833C96.8831 72.475 96.8914 72.475 96.8997 72.4666C97.7247 71.9666 98.5331 71.45 99.3247 70.9083C99.4997 70.7833 99.6664 70.6583 99.8247 70.525L99.8414 70.55L99.908 70.6333C97.8831 72.475 95.4747 73.8416 93.0248 75.0499C90.5498 76.2166 87.9665 77.1749 85.2998 77.8666C82.6415 78.5499 79.8666 79.0749 77.0583 78.8166C74.2916 78.5582 71.375 77.5916 69.5167 75.4916ZM90.1665 66.7917C90.1665 65.825 90.9415 65.05 91.8998 65.0417C92.8664 65.0417 93.6414 65.8167 93.6498 66.775C93.6498 67.7333 92.8748 68.525 91.9164 68.525C90.9581 68.5333 90.1665 67.7583 90.1665 66.7917ZM76.3833 109.958C74.6416 97.7747 85.2748 85.8498 91.2748 79.7499C92.6331 78.3666 94.7414 76.4583 96.6997 74.4333C104.483 67.1584 106.033 58.4584 90.0998 54.1085C87.0832 53.2335 83.9499 51.9918 80.7832 50.7418C80.6832 50.4502 80.5666 50.1752 80.4416 49.9169C80.0749 49.2919 79.4416 48.5669 78.4749 47.7502C76.3999 45.9502 72.5166 46.0002 69.1583 46.7919C65.4417 45.9169 61.7834 45.6086 58.2584 46.4502C42.8503 50.6918 40.3753 58.2084 39.7753 67.2667C38.9586 77.0499 38.4836 84.3415 34.7753 92.6748C30.1504 85.9998 27.4254 77.9166 27.3921 69.1833C27.2921 46.2086 45.8336 27.4921 68.8167 27.3921C91.7998 27.2921 110.508 45.8336 110.616 68.8167C110.7 89.3415 95.9164 106.466 76.3833 109.958Z" fill="white"></path><path d="M69.5165 58.8253C69.5165 61.9502 66.9832 64.4835 63.8582 64.4835C60.7333 64.4835 58.2 61.9502 58.2 58.8253C58.2 55.7003 60.7333 53.167 63.8582 53.167C66.9832 53.167 69.5165 55.7003 69.5165 58.8253Z" fill="white"></path></svg> 