<?xml version="1.0" encoding="UTF-8"?> <svg xmlns="http://www.w3.org/2000/svg" width="138" height="138" viewBox="0 0 138 138" fill="none"><rect x="3.5" y="3.5" width="131" height="131" rx="16.5" fill="white"></rect><rect x="3.5" y="3.5" width="131" height="131" rx="16.5" stroke="#0056F9" stroke-width="7"></rect><path fill-rule="evenodd" clip-rule="evenodd" d="M68.8284 20C41.8612 20 20 41.8612 20 68.8284C20 95.7956 41.8612 117.657 68.8284 117.657C95.7956 117.657 117.657 95.7956 117.657 68.8284C117.657 41.8612 95.7956 20 68.8284 20ZM53.8352 41.4536C53.8345 41.3777 57.1605 39.511 61.2258 37.3051C65.2912 35.0992 68.6903 33.2904 68.779 33.2856C68.8677 33.2807 69.3755 33.5306 69.9075 33.8413C70.4395 34.1519 73.2106 35.6872 76.0658 37.2531C81.9736 40.4929 84.1511 41.7115 84.2822 41.8503C84.3811 41.9549 83.7506 42.2663 77.6796 45.108L76.1782 45.8108C74.5874 46.5553 72.7386 46.5055 71.1904 45.6763V45.6763L70.9831 45.5653C69.5756 44.8117 67.8845 44.8119 66.4772 45.5659V45.5659C65.2384 46.2299 64.0958 46.7777 63.9383 46.7832C63.5921 46.7958 53.837 41.6496 53.8352 41.4536ZM39.1633 54.0057C39.1633 51.046 40.7889 48.3254 43.3953 46.923V46.923C45.7229 45.6705 47.8048 44.6366 48.0218 44.625C48.2387 44.6134 52.9425 47.0253 58.4747 49.9845C65.8139 53.9104 68.4533 55.4297 68.2368 55.6042C68.0739 55.7355 66.9248 56.3118 65.6834 56.8849C64.4421 57.4578 62.9186 58.1726 62.2979 58.4737C61.4948 58.8615 60.69 59.2457 59.8836 59.6261V59.6261C59.077 60.0061 58.1363 59.9716 57.3597 59.5336L55.7081 58.6021C54.0103 57.6445 52.3135 56.685 50.6178 55.7235V55.7235C49.6356 55.166 48.4172 55.8755 48.4172 57.0049V62.1536C48.4172 63.8945 47.4068 65.4772 45.8276 66.2098L43.9139 67.0977C41.4371 68.2468 39.355 69.187 39.2871 69.187C39.2189 69.187 39.1633 64.69 39.1633 59.1936V54.0057ZM79.7998 50.1473C79.8025 50.081 82.1627 48.9179 85.045 47.5625C87.9269 46.2068 90.3623 45.0952 90.4568 45.0921C90.5514 45.0887 92.3559 46.0094 94.4671 47.138V47.138C96.8262 48.3993 98.2884 50.8676 98.2612 53.5425L98.2449 55.1393L98.2151 58.0876C98.1965 59.9243 97.1339 61.5901 95.4763 62.3813V62.3813C93.9866 63.0924 89.8732 65.0351 86.3353 66.6985C82.3097 68.5916 78.2847 70.4859 74.2602 72.3813C65.2601 76.6209 61.0678 78.5873 55.5898 81.1386C52.7694 82.4524 50.4586 83.5957 50.455 83.6796C50.4515 83.7637 50.6261 83.8927 50.8435 83.9664C51.0609 84.0403 52.051 84.5978 53.0441 85.2054C54.0372 85.813 55.3828 86.6011 56.0347 86.9571C56.6862 87.3131 57.2196 87.6751 57.2196 87.7618C57.2196 87.8488 54.8583 89.0299 51.972 90.3866L50.6017 91.0308C48.1609 92.1783 45.3224 92.1094 42.9401 90.8451V90.8451V90.8451C40.6154 89.6112 39.1726 87.184 39.1996 84.5522L39.216 82.9541C39.2665 78.0222 39.3308 77.0395 39.6147 76.8704C39.8971 76.7024 41.953 75.7236 49.4329 72.1965C49.743 72.0502 52.0839 70.9479 54.973 69.5874L56.7682 68.7421L71.3261 61.8875C75.6708 59.8416 80.9267 57.3691 83.0062 56.393C85.0853 55.4167 86.7867 54.558 86.7867 54.4844C86.7867 54.4107 85.2136 53.432 83.291 52.3091C81.3682 51.1865 79.7973 50.2135 79.7998 50.1473ZM94.6736 70.2226C95.4735 69.8519 96.5907 69.3131 97.1563 69.0253C97.722 68.7375 98.2531 68.4934 98.3364 68.483C98.5469 68.4565 98.565 88.0428 98.3546 88.3744C98.2612 88.5219 96.2324 89.6946 93.8465 90.9803V90.9803C91.1389 92.4393 87.8786 92.4366 85.1733 90.9733L79.352 87.8244C73.7661 84.8029 69.269 82.2639 69.3581 82.1819C69.4475 82.0998 71.3486 81.1926 73.5831 80.1659C75.8175 79.1389 77.9357 78.1494 78.2901 77.9665C78.9031 77.6502 79.067 77.7081 81.6757 79.164C85.2901 81.1815 88.8857 83.1024 89.1128 83.1375C89.2128 83.1527 89.3143 80.8152 89.3385 77.9426L89.3644 74.8436C89.3753 73.5445 90.1273 72.3657 91.3007 71.8082V71.8082C92.3559 71.3066 93.8738 70.5933 94.6736 70.2226ZM70.8747 93.0271C71.6268 92.6892 72.3791 92.3517 73.1317 92.0146V92.0146C74.2715 91.5039 75.5828 91.5457 76.6878 92.1278L79.6585 93.693C82.2552 95.0612 84.4116 96.2147 84.4507 96.2562C84.4895 96.2978 82.4157 97.4017 79.8423 98.7094C77.2686 100.017 73.726 101.826 71.9695 102.729V102.729C69.9677 103.758 67.5898 103.748 65.5971 102.701L61.1861 100.383C54.7143 96.9828 53.0371 95.939 54.046 95.939C54.148 95.939 56.1987 95.0061 58.6032 93.8658C61.0078 92.7256 63.1815 91.7069 63.4341 91.6021C63.7708 91.4623 64.5466 91.7502 66.3463 92.6834C67.7926 93.4334 68.3373 93.7723 68.8794 93.7683C69.3502 93.7648 69.819 93.5029 70.8747 93.0271Z" fill="#0056F9"></path></svg> 