<?xml version="1.0" encoding="UTF-8"?> <svg xmlns="http://www.w3.org/2000/svg" width="138" height="138" viewBox="0 0 138 138" fill="none"><rect x="3.5" y="3.5" width="131" height="131" rx="16.5" fill="white"></rect><rect x="3.5" y="3.5" width="131" height="131" rx="16.5" stroke="#0056F9" stroke-width="7"></rect><path fill-rule="evenodd" clip-rule="evenodd" d="M68.83 117.66C95.7981 117.66 117.66 95.7981 117.66 68.83C117.66 41.8619 95.7981 20 68.83 20C41.8619 20 20 41.8619 20 68.83C20 95.7981 41.8619 117.66 68.83 117.66ZM42.6 42H95.4C99.03 42 102 44.9813 102 48.625V88.375C102 92.0188 99.03 95 95.4 95H42.6C38.97 95 36 92.0188 36 88.375L36.033 48.625C36.033 44.9813 38.97 42 42.6 42ZM70.749 70.7194L94.08 56.0781C94.4109 55.8917 94.7007 55.6398 94.9318 55.3376C95.1629 55.0355 95.3305 54.6895 95.4245 54.3204C95.5185 53.9514 95.5369 53.567 95.4787 53.1906C95.4204 52.8142 95.2867 52.4536 95.0856 52.1306C94.8845 51.8076 94.6201 51.5289 94.3086 51.3114C93.9971 51.0939 93.6448 50.9421 93.2732 50.8652C92.9015 50.7883 92.5182 50.788 92.1463 50.8641C91.7745 50.9402 91.422 51.0913 91.11 51.3081L69 65.1875L46.89 51.3081C46.578 51.0913 46.2255 50.9402 45.8537 50.8641C45.4818 50.788 45.0985 50.7883 44.7268 50.8652C44.3552 50.9421 44.0029 51.0939 43.6914 51.3114C43.3799 51.5289 43.1155 51.8076 42.9144 52.1306C42.7133 52.4536 42.5796 52.8142 42.5213 53.1906C42.4631 53.567 42.4815 53.9514 42.5755 54.3204C42.6695 54.6895 42.8371 55.0355 43.0682 55.3376C43.2993 55.6398 43.5891 55.8917 43.92 56.0781L67.251 70.7194C68.307 71.3819 69.693 71.3819 70.749 70.7194Z" fill="#0056F9"></path></svg> 