<?xml version="1.0" encoding="UTF-8"?> <svg xmlns="http://www.w3.org/2000/svg" width="138" height="138" viewBox="0 0 138 138" fill="none"><rect x="3.5" y="3.5" width="131" height="131" rx="16.5" fill="white"></rect><rect x="3.5" y="3.5" width="131" height="131" rx="16.5" stroke="#0056F9" stroke-width="7"></rect><path d="M40.5012 66.8007C40.5013 66.2501 40.6101 65.705 40.8215 65.1966C41.0328 64.6882 41.3425 64.2267 41.7327 63.8383C42.123 63.4499 42.5861 63.1424 43.0955 62.9335C43.6049 62.7246 44.1505 62.6184 44.7011 62.621L51.6645 62.6437C52.7747 62.6437 53.8395 63.0848 54.6245 63.8698C55.4096 64.6548 55.8507 65.7196 55.8507 66.8299V93.1596C56.6346 92.9269 57.6414 92.6789 58.7431 92.4195C59.5083 92.2398 60.1903 91.8067 60.6785 91.1905C61.1666 90.5744 61.4322 89.8114 61.432 89.0253V56.3645C61.432 55.2541 61.873 54.1893 62.658 53.4041C63.443 52.6189 64.5078 52.1777 65.6182 52.1775H72.5954C73.7056 52.1777 74.7704 52.6189 75.5554 53.4041C76.3405 54.1893 76.7815 55.2541 76.7815 56.3645V86.6769C76.7815 86.6769 78.5285 85.97 80.23 85.2518C80.8621 84.9845 81.4015 84.5369 81.7809 83.965C82.1604 83.3932 82.363 82.7222 82.3636 82.0359V45.8991C82.3636 44.789 82.8045 43.7243 83.5894 42.9392C84.3743 42.1542 85.4388 41.7131 86.5489 41.7129H93.5262C94.6364 41.7129 95.7011 42.1539 96.4862 42.939C97.2713 43.724 97.7123 44.7888 97.7123 45.8991V75.657C103.761 71.273 109.891 66.0006 114.756 59.6606C115.462 58.7403 115.929 57.6596 116.116 56.5151C116.302 55.3705 116.202 54.1975 115.825 53.1008C113.573 46.622 109.994 40.6845 105.316 35.6684C100.638 30.6524 94.9642 26.6681 88.6579 23.9707C82.3515 21.2733 75.5515 19.922 68.693 20.0035C61.8345 20.0849 55.0685 21.5973 48.8281 24.4437C42.5876 27.2902 37.0101 31.408 32.4524 36.5338C27.8947 41.6595 24.4573 47.6803 22.36 54.2108C20.2628 60.7413 19.552 67.6377 20.2731 74.4587C20.9941 81.2797 23.1312 87.875 26.5475 93.8227C27.1427 94.8486 28.0182 95.6835 29.0713 96.2292C30.1245 96.7748 31.3114 97.0086 32.4928 96.9031C33.8126 96.7872 35.4557 96.6227 37.4094 96.3932C38.2598 96.2967 39.045 95.8907 39.6153 95.2524C40.1857 94.6142 40.5013 93.7885 40.502 92.9326L40.5012 66.8007Z" fill="#0056F9"></path><path d="M40.3489 109.031C47.7033 114.381 56.3946 117.593 65.4611 118.311C74.5276 119.027 83.6158 117.223 91.7202 113.095C99.8245 108.967 106.629 102.678 111.381 94.9234C116.132 87.1685 118.646 78.2502 118.643 69.1554C118.643 68.0205 118.59 66.8978 118.515 65.7815C100.503 92.6446 67.2468 105.203 40.3504 109.027" fill="#0056F9"></path></svg> 