<?xml version="1.0" encoding="UTF-8"?> <svg xmlns="http://www.w3.org/2000/svg" width="452" height="479" viewBox="0 0 452 479" fill="none"><path d="M339.83 409.143L379.54 389.303C408.64 374.803 426.65 343.643 426.65 299.263C426.65 210.613 354.78 102.803 266.13 58.4634C221.88 36.3334 181.82 34.2034 152.78 48.6434L113.99 68.0834L339.83 409.153V409.143Z" fill="url(#paint0_linear_970_193)"></path><path style="mix-blend-mode:multiply" opacity="0.3" d="M411.82 224.373L329.04 265.773V290.493L418.79 245.613C416.81 238.543 414.48 231.453 411.82 224.383V224.373ZM423.04 263.463L329.05 310.473V376.453L423.57 329.183C425.59 320.023 426.66 310.043 426.66 299.273C426.66 287.613 425.4 275.613 423.04 263.473V263.463Z" fill="url(#paint1_linear_970_193)"></path><path d="M352.307 401.238C406.861 358.646 394.44 251.562 324.564 162.059C254.687 72.5562 153.815 34.5277 99.2597 77.12C44.7048 119.712 57.1257 226.797 127.003 316.299C196.88 405.802 297.752 443.831 352.307 401.238Z" fill="url(#paint2_linear_970_193)"></path><path style="mix-blend-mode:multiply" opacity="0.3" d="M304.949 386.377C320.798 364.191 295.39 318.876 248.198 285.165C201.007 251.454 149.902 242.112 134.053 264.299C118.204 286.486 143.612 331.8 190.804 365.511C237.995 399.222 289.1 408.564 304.949 386.377Z" fill="url(#paint3_linear_970_193)"></path><path style="mix-blend-mode:multiply" opacity="0.3" d="M386.3 319.443C386.3 230.793 314.43 122.983 225.78 78.6427C140.99 36.2427 71.5599 67.2627 65.6699 147.603C141.34 -49.8473 339.46 433.633 381.9 354.683C384.77 344.103 386.3 332.333 386.3 319.433V319.443Z" fill="url(#paint4_linear_970_193)"></path><g style="mix-blend-mode:screen"><path d="M362.35 392.693L361.53 391.943C377.37 374.553 385.74 349.493 385.74 319.443C385.74 231.123 313.87 123.323 225.53 79.1434C192.52 62.6334 160.85 56.7534 133.94 62.1334L133.72 61.0434C160.87 55.6134 192.79 61.5334 226.02 78.1434C314.7 122.493 386.85 230.743 386.85 319.443C386.85 349.763 378.38 375.093 362.34 392.683L362.35 392.693Z" fill="url(#paint5_linear_970_193)"></path></g><path style="mix-blend-mode:multiply" d="M100.99 168.543C76.7499 196.073 71.8099 235.793 89.0299 268.183C100.43 289.623 114.61 310.303 130.85 329.133C163.09 366.513 219.61 370.553 257.18 338.533L347.07 261.923L186.57 277.153L100.98 168.543H100.99Z" fill="url(#paint6_linear_970_193)"></path><path d="M198.33 254.393L311.53 197.803C322.84 192.153 341.17 201.323 352.47 218.283C363.78 235.243 363.78 253.573 352.47 259.223L218.8 326.043C213.37 328.753 206.01 328.123 198.33 324.283V254.383V254.393Z" fill="url(#paint7_linear_970_193)"></path><path d="M169.56 287.043L198.33 254.393L143.87 175.463C132.46 158.923 114.49 150.173 103.36 155.733L77.9399 168.443L169.56 287.043Z" fill="url(#paint8_linear_970_193)"></path><path d="M172.91 337.003C165.23 333.163 157.87 326.433 152.44 318.283L78.36 210.113C66.63 192.983 66.44 174.183 77.94 168.443C89.07 162.883 107.04 171.633 118.45 188.173L172.91 267.103L286.11 210.513C297.42 204.863 315.75 214.033 327.05 230.993C338.36 247.953 338.36 266.283 327.05 271.933L193.38 338.753C187.95 341.463 180.59 340.833 172.91 336.993V337.003Z" fill="url(#paint9_linear_970_193)"></path><path style="mix-blend-mode:screen" d="M327.05 230.993C315.74 214.033 297.41 204.863 286.11 210.513L172.91 267.103L118.45 188.173C107.04 171.633 89.0699 162.883 77.9399 168.443L170.94 300.593L327.05 231.003V230.993Z" fill="url(#paint10_linear_970_193)"></path><g style="mix-blend-mode:screen"><path d="M172.72 267.813L172.45 267.413L117.99 188.483C106.83 172.313 88.9799 163.543 78.1899 168.933L77.6899 167.943C89.1499 162.213 107.25 170.963 118.9 187.853L173.09 266.393L285.86 210.023C297.39 204.263 316.07 213.533 327.51 230.693L326.59 231.313C315.45 214.603 297.41 205.503 286.36 211.023L172.73 267.823L172.72 267.813Z" fill="url(#paint11_linear_970_193)"></path></g><defs><linearGradient id="paint0_linear_970_193" x1="411.13" y1="360.873" x2="179.98" y2="22.6334" gradientUnits="userSpaceOnUse"><stop stop-color="#B3C6FF"></stop><stop offset="0.11" stop-color="#7A9DFF"></stop><stop offset="0.45" stop-color="#B3C7FF"></stop><stop offset="0.72" stop-color="#E3EAFF"></stop><stop offset="1" stop-color="#C2D2FF"></stop></linearGradient><linearGradient id="paint1_linear_970_193" x1="313.19" y1="360.593" x2="430.61" y2="243.163" gradientUnits="userSpaceOnUse"><stop stop-color="#7E9FFF"></stop><stop offset="1" stop-color="#5C75E0"></stop></linearGradient><linearGradient id="paint2_linear_970_193" x1="136.036" y1="328.928" x2="315.536" y2="149.428" gradientUnits="userSpaceOnUse"><stop stop-color="#5C75E0"></stop><stop offset="1" stop-color="#9AB5FF"></stop></linearGradient><linearGradient id="paint3_linear_970_193" x1="-625.192" y1="-53.3578" x2="-528.698" y2="-137.797" gradientUnits="userSpaceOnUse"><stop stop-color="#5C75E0"></stop><stop offset="1" stop-color="white"></stop></linearGradient><linearGradient id="paint4_linear_970_193" x1="223.15" y1="238.523" x2="282.07" y2="150.493" gradientUnits="userSpaceOnUse"><stop stop-color="white"></stop><stop offset="1" stop-color="#5C75E0"></stop></linearGradient><linearGradient id="paint5_linear_970_193" x1="260.29" y1="392.693" x2="260.29" y2="59.0934" gradientUnits="userSpaceOnUse"><stop></stop><stop offset="1" stop-color="white"></stop></linearGradient><linearGradient id="paint6_linear_970_193" x1="197.59" y1="283.453" x2="210.2" y2="245.623" gradientUnits="userSpaceOnUse"><stop stop-color="white"></stop><stop offset="1" stop-color="#7590F2"></stop></linearGradient><linearGradient id="paint7_linear_970_193" x1="278.78" y1="278.043" x2="257.58" y2="225.623" gradientUnits="userSpaceOnUse"><stop stop-color="#192836"></stop><stop offset="0.53" stop-color="#466E99"></stop><stop offset="0.81" stop-color="#8BB4E0"></stop><stop offset="1" stop-color="#466E99"></stop></linearGradient><linearGradient id="paint8_linear_970_193" x1="154.44" y1="251.733" x2="114.56" y2="153.133" gradientUnits="userSpaceOnUse"><stop stop-color="#192836"></stop><stop offset="0.53" stop-color="#466E99"></stop><stop offset="0.81" stop-color="#8BB4E0"></stop><stop offset="1" stop-color="#466E99"></stop></linearGradient><linearGradient id="paint9_linear_970_193" x1="241.94" y1="161.293" x2="143.53" y2="308.213" gradientUnits="userSpaceOnUse"><stop stop-color="#416285"></stop><stop offset="1" stop-color="#252525"></stop></linearGradient><linearGradient id="paint10_linear_970_193" x1="185.46" y1="303.743" x2="201.39" y2="206.473" gradientUnits="userSpaceOnUse"><stop stop-color="#010103"></stop><stop offset="0.45" stop-color="#5E77E2"></stop><stop offset="0.79" stop-color="#8AA4F7"></stop><stop offset="0.99" stop-color="white"></stop></linearGradient><linearGradient id="paint11_linear_970_193" x1="202.6" y1="267.813" x2="202.6" y2="166.193" gradientUnits="userSpaceOnUse"><stop></stop><stop offset="1" stop-color="white"></stop></linearGradient></defs></svg> 