<?xml version="1.0" encoding="UTF-8"?> <svg xmlns="http://www.w3.org/2000/svg" width="525" height="504" viewBox="0 0 525 504" fill="none"><path d="M127.131 402.223L84.2093 355.323C80.4845 351.433 79.4739 345.574 82.0962 338.729C83.9172 333.976 87.2375 329.39 91.4797 325.361L76.8885 309.416C72.9799 305.53 71.8787 299.572 74.5547 292.587C76.3757 287.834 79.696 283.248 83.9346 279.229L69.0566 262.97C68.9717 262.884 68.8905 262.789 68.8057 262.702C65.3385 258.783 64.4789 253.088 67.019 246.458C68.8757 241.612 72.295 236.935 76.6534 232.855L63.7533 218.756C59.2815 213.574 56.4065 208.36 59.4832 200.329C64.6349 186.882 81.7968 174.706 97.8325 173.129L234.697 159.694L277.619 206.594L271.574 341.168L127.122 402.22L127.131 402.223Z" fill="url(#paint0_linear_970_161)"></path><path style="mix-blend-mode:screen" opacity="0.6" d="M124.833 170.494L97.8352 173.151C95.4634 173.388 93.0595 173.849 90.6811 174.523L153.972 243.447L185.869 237.056L124.833 170.494ZM72.9413 183.511L142.467 259.193C144.792 256.422 146.996 253.604 149.07 250.736L82.1288 177.811C78.8835 179.405 75.7881 181.335 72.9543 183.505L72.9413 183.511Z" fill="url(#paint1_linear_970_161)"></path><path d="M234.694 159.704L244.403 106.913L346.461 164.903L277.616 206.603L234.694 159.704Z" fill="url(#paint2_linear_970_161)"></path><path d="M389.387 211.793L346.465 164.893L435.141 156.181C442.653 155.44 448.432 157.407 451.647 161.145L494.569 208.045L389.387 211.793Z" fill="url(#paint3_linear_970_161)"></path><path d="M265.242 140.062L222.32 93.1623C210.875 80.3818 216.133 57.8519 236.526 38.6679L301.992 74.6611C308.263 78.1127 313.604 82.3115 318.031 87.1347C318.042 87.1067 360.968 133.997 360.968 133.997L265.246 140.053L265.242 140.062Z" fill="url(#paint4_linear_970_161)"></path><path d="M301.989 74.6705C308.259 78.1221 313.6 82.3209 318.028 87.1441C318.039 87.1161 360.964 134.007 360.964 134.007L279.448 85.5677L236.526 38.668L301.992 74.6612L301.989 74.6705Z" fill="url(#paint5_linear_970_161)"></path><path d="M102.415 247.233C107.567 233.786 124.729 221.61 140.764 220.032L277.629 206.597L287.338 153.807L272.106 145.433C252.479 134.637 255.773 107.842 279.458 85.5716L344.924 121.565C363.306 131.67 373.984 148.129 375.711 168.388C375.729 168.395 389.4 211.788 389.4 211.788L333.468 357.78C287.1 362.333 234.336 396.861 184.374 403.079L144.715 407.118C128.692 408.689 119.871 399.067 125.026 385.61C130.181 372.154 147.352 359.982 163.375 358.41L137.182 360.979C121.16 362.551 112.338 352.928 117.494 339.472C122.649 326.016 139.811 313.84 155.843 312.272L129.65 314.841C113.627 316.413 104.806 306.79 109.962 293.334C115.117 279.877 132.288 267.705 148.311 266.133L122.118 268.703C106.095 270.274 97.2741 260.652 102.429 247.195L102.415 247.233Z" fill="url(#paint6_linear_970_161)"></path><path style="mix-blend-mode:screen" opacity="0.6" d="M344.911 121.571L279.445 85.5774C255.76 107.848 252.466 134.643 272.093 145.439L287.325 153.813L277.616 206.603L140.751 220.038C124.728 221.61 107.554 233.792 102.402 247.239C97.2502 260.685 106.059 270.314 122.091 268.746L148.283 266.176C132.261 267.748 115.086 279.93 109.934 293.377C104.782 306.824 113.591 316.452 129.626 314.875L155.819 312.305C139.796 313.877 122.621 326.059 117.47 339.506C112.318 352.953 121.126 362.581 137.158 361.013L163.351 358.444C147.329 360.016 130.154 372.197 125.002 385.644C121.285 395.347 124.841 403.059 133.124 406.008L366.783 141.601C361.581 133.515 354.237 126.718 344.885 121.582L344.911 121.571Z" fill="url(#paint7_linear_970_161)"></path><g style="mix-blend-mode:screen"><path d="M125.532 385.826L124.496 385.429C128.71 374.429 140.887 364.252 153.955 359.91L137.22 361.551C128.773 362.384 121.846 360.116 118.205 355.337C115.033 351.177 114.592 345.482 116.96 339.3C121.174 328.3 133.351 318.123 146.419 313.78L129.685 315.422C121.237 316.255 114.311 313.987 110.669 309.208C107.498 305.048 107.056 299.353 109.424 293.171C113.638 282.171 125.815 271.993 138.884 267.651L122.149 269.293C113.705 270.117 106.775 267.858 103.133 263.079C99.9618 258.919 99.52 253.224 101.888 247.042C107.101 233.436 124.515 221.078 140.693 219.491L277.135 206.098L286.698 154.108L271.821 145.924C264.416 141.856 259.971 135.43 258.948 127.339C257.304 114.329 264.821 98.5653 279.064 85.1746L279.361 84.9029L345.179 121.095L344.646 122.069L279.544 86.2689C265.752 99.3502 258.471 114.637 260.068 127.211C261.05 134.933 265.306 141.072 272.383 144.961L287.958 153.531L287.884 153.92L278.103 207.122L140.825 220.602C125.011 222.157 108.02 234.195 102.944 247.446C100.718 253.255 101.101 258.573 104.03 262.416C107.438 266.881 114.008 268.991 122.055 268.197L148.248 265.627L148.36 266.731C132.547 268.286 115.556 280.324 110.479 293.575C108.254 299.384 108.637 304.702 111.566 308.545C114.974 313.01 121.544 315.12 129.591 314.326L155.783 311.756L155.896 312.86C140.083 314.416 123.092 326.454 118.015 339.704C115.79 345.513 116.172 350.832 119.102 354.674C122.51 359.139 129.08 361.249 137.126 360.455L163.319 357.886L163.432 358.989C147.619 360.545 130.627 372.583 125.551 385.833L125.532 385.826Z" fill="url(#paint8_linear_970_161)"></path></g><path d="M478.068 203.094L389.392 211.806L333.461 357.799L422.137 349.086C436.793 347.644 452.497 336.505 457.209 324.207L496.072 222.767C500.783 210.469 492.721 201.661 478.065 203.103L478.068 203.094Z" fill="url(#paint9_linear_970_161)"></path><g style="mix-blend-mode:screen"><path d="M333.978 357.986L332.941 357.589L388.995 211.279L478.014 202.538L478.117 203.637L389.784 212.32L333.978 357.986Z" fill="url(#paint10_linear_970_161)"></path></g><path d="M450.992 249.145C447.214 259.006 434.627 267.934 422.876 269.086C411.126 270.239 404.664 263.18 408.442 253.319C412.22 243.458 424.807 234.53 436.557 233.377C448.307 232.224 454.769 239.284 450.992 249.145Z" fill="url(#paint11_linear_970_161)"></path><path style="mix-blend-mode:multiply" opacity="0.5" d="M116.078 345.377C115.201 355.632 123.597 362.339 137.172 361.008L163.364 358.438C147.342 360.01 130.167 372.192 125.015 385.639C119.863 399.086 128.681 408.718 144.704 407.146L184.364 403.107C234.325 396.89 287.08 362.358 333.457 357.809L422.133 349.097C436.789 347.654 452.494 336.515 457.205 324.217L474.546 278.955C450.97 195.786 371.499 309.972 283.732 335.599C202.837 359.222 121.622 307.985 116.07 345.395L116.078 345.377Z" fill="url(#paint12_linear_970_161)"></path><defs><linearGradient id="paint0_linear_970_161" x1="79.8204" y1="351.49" x2="254.126" y2="182.943" gradientUnits="userSpaceOnUse"><stop stop-color="#89A3FF"></stop><stop offset="0.09" stop-color="#3755C4"></stop><stop offset="0.3" stop-color="#1539AB"></stop><stop offset="0.47" stop-color="#577AE0"></stop><stop offset="1" stop-color="#577AE0"></stop></linearGradient><linearGradient id="paint1_linear_970_161" x1="119.784" y1="235.383" x2="137.976" y2="187.898" gradientUnits="userSpaceOnUse"><stop stop-color="#010103"></stop><stop offset="0.76" stop-color="#A8BDF5"></stop><stop offset="1" stop-color="white"></stop></linearGradient><linearGradient id="paint2_linear_970_161" x1="251.192" y1="178.693" x2="286.427" y2="144.613" gradientUnits="userSpaceOnUse"><stop stop-color="#3755C4"></stop><stop offset="1" stop-color="#1539AB"></stop></linearGradient><linearGradient id="paint3_linear_970_161" x1="397.706" y1="207.045" x2="450.075" y2="159.826" gradientUnits="userSpaceOnUse"><stop stop-color="#446990"></stop><stop offset="0.74" stop-color="#7793B8"></stop><stop offset="1" stop-color="#BED0E8"></stop></linearGradient><linearGradient id="paint4_linear_970_161" x1="231.457" y1="116.356" x2="332.91" y2="71.1069" gradientUnits="userSpaceOnUse"><stop stop-color="#5C75E0"></stop><stop offset="1" stop-color="#294BB0"></stop></linearGradient><linearGradient id="paint5_linear_970_161" x1="290.788" y1="107.121" x2="306.708" y2="65.5664" gradientUnits="userSpaceOnUse"><stop stop-color="#BBCBF9"></stop><stop offset="1" stop-color="#4973ED"></stop></linearGradient><linearGradient id="paint6_linear_970_161" x1="293.21" y1="375.736" x2="182.991" y2="128.597" gradientUnits="userSpaceOnUse"><stop stop-color="#99B4FF"></stop><stop offset="1" stop-color="#BDCEFF"></stop></linearGradient><linearGradient id="paint7_linear_970_161" x1="260.549" y1="370.869" x2="227.712" y2="158.892" gradientUnits="userSpaceOnUse"><stop stop-color="#010103"></stop><stop offset="0.76" stop-color="#A8BDF5"></stop><stop offset="1" stop-color="white"></stop></linearGradient><linearGradient id="paint8_linear_970_161" x1="143.583" y1="392.742" x2="263.807" y2="78.9333" gradientUnits="userSpaceOnUse"><stop></stop><stop offset="1" stop-color="white"></stop></linearGradient><linearGradient id="paint9_linear_970_161" x1="441.009" y1="342.845" x2="383.691" y2="214.334" gradientUnits="userSpaceOnUse"><stop stop-color="#374A5D"></stop><stop offset="1" stop-color="#466E99"></stop></linearGradient><linearGradient id="paint10_linear_970_161" x1="422.605" y1="318.457" x2="377.151" y2="216.561" gradientUnits="userSpaceOnUse"><stop></stop><stop offset="1" stop-color="white"></stop></linearGradient><linearGradient id="paint11_linear_970_161" x1="407.463" y1="261.157" x2="451.984" y2="241.3" gradientUnits="userSpaceOnUse"><stop stop-color="#99B4FF"></stop><stop offset="1" stop-color="#E0E9FF"></stop></linearGradient><linearGradient id="paint12_linear_970_161" x1="303.19" y1="385.353" x2="288.853" y2="254.729" gradientUnits="userSpaceOnUse"><stop stop-color="#5C75E0"></stop><stop offset="1" stop-color="white"></stop></linearGradient></defs></svg> 