<?xml version="1.0" encoding="UTF-8"?> <svg xmlns="http://www.w3.org/2000/svg" width="407" height="428" viewBox="0 0 407 428" fill="none"><path d="M161.999 329.93L179.223 134.839C182.663 95.8809 219.623 46.9017 261.291 30.4625C285.556 20.8895 304.486 21.4967 317.658 29.6768C317.66 29.6569 373.472 64.2695 373.472 64.2695L161.999 329.93Z" fill="url(#paint0_linear_970_178)"></path><path style="mix-blend-mode:screen" opacity="0.6" d="M233.237 46.7781L320.405 100.553C321.969 97.0566 323.394 93.5383 324.667 90.0267L243.265 39.7327C239.852 41.8909 236.501 44.2554 233.237 46.7781ZM290.586 23.5015C281.913 23.9505 272.139 26.1796 261.301 30.453C258.243 31.6587 255.208 33.0572 252.211 34.5996L327.558 81.1665L358.183 65.3989L290.597 23.4924L290.586 23.5015Z" fill="url(#paint1_linear_970_178)"></path><path d="M15.7706 218.97C20.4019 166.514 55.5582 111.593 110.34 89.9975C130.32 82.1142 147.746 83.1608 160.125 90.6585C160.127 90.6286 215.939 125.251 215.939 125.251L134.291 367.57L86.9213 338.19C43.8919 313.66 10.0383 283.898 15.7706 218.97Z" fill="url(#paint2_linear_970_178)"></path><path style="mix-blend-mode:screen" opacity="0.6" d="M75.3001 110.164L165.086 165.565C166.649 162.069 168.074 158.551 169.348 155.039L85.2143 103.048C81.7942 105.286 78.4922 107.665 75.3001 110.164ZM129.594 84.9915C123.528 85.7107 117.08 87.33 110.33 89.9966C104.64 92.2449 99.1782 94.8647 93.9211 97.7837L172.228 146.178L202.854 130.41L129.594 84.9915Z" fill="url(#paint3_linear_970_178)"></path><path d="M169.848 126.633C211.514 110.203 242.182 132.507 238.742 171.465C242.182 132.507 279.143 83.5276 320.81 67.0884C375.582 45.4817 403.228 75.6299 398.597 128.086C389.857 227.081 297.404 313.655 217.38 413.424C149.833 371.863 66.5497 354.591 75.2889 255.606C79.9202 203.15 115.077 148.229 169.858 126.633L169.848 126.633Z" fill="url(#paint4_linear_970_178)"></path><path style="mix-blend-mode:screen" opacity="0.6" d="M75.288 255.617C79.9192 203.161 115.076 148.24 169.847 126.643C211.513 110.214 242.181 132.518 238.741 171.476C242.181 132.518 279.142 83.5384 320.809 67.0991C375.581 45.4925 403.227 75.6406 398.596 128.097C335.005 66.5154 275.34 232.682 197.698 294.774C139.435 341.371 69.8326 317.407 75.2888 255.607L75.288 255.617Z" fill="url(#paint5_linear_970_178)"></path><g style="mix-blend-mode:screen"><path d="M239.3 171.515L238.195 171.417C239.865 152.501 249.636 130.294 265.007 110.489C280.865 90.055 300.613 74.4613 320.614 66.5798C334.812 60.9767 347.577 58.6403 358.684 59.7314L358.586 60.8371C358.457 60.8256 358.337 60.8151 358.218 60.8045C347.41 59.8503 334.9 62.139 321.024 67.6199C280.99 83.4102 242.802 131.97 239.309 171.526L239.3 171.515Z" fill="url(#paint6_linear_970_178)"></path></g><g style="mix-blend-mode:screen"><path d="M196.746 402.217C189.667 398.369 182.448 394.63 175.47 391.002C120.054 362.247 67.7103 335.078 74.7311 255.558C77.0626 229.15 87.2154 202.048 103.305 179.225C120.54 154.796 143.474 136.432 169.643 126.113C190.31 117.959 209.766 118.974 223.026 128.889C235.137 137.939 240.918 153.076 239.29 171.514L238.184 171.417C239.777 153.377 234.156 138.585 222.365 129.774C209.416 120.098 190.347 119.137 170.054 127.143C118.704 147.396 80.8348 199.045 75.8368 255.655C68.882 334.429 120.909 361.429 175.979 390.013C182.966 393.641 190.185 397.391 197.274 401.239L196.746 402.217Z" fill="url(#paint7_linear_970_178)"></path></g><path style="mix-blend-mode:multiply" opacity="0.3" d="M235.957 311.603C181.403 333.119 134.189 330.406 102.759 308.668C123.756 349.874 175.272 365.274 219.242 392.336C260.235 341.233 304.919 294.04 336.746 246.355C306.58 274.43 272.018 297.38 235.957 311.603Z" fill="url(#paint8_linear_970_178)"></path><path style="mix-blend-mode:screen" opacity="0.6" d="M343.547 149.717C373.364 129.06 388.647 99.4842 377.683 83.6585C366.719 67.8329 333.659 71.7499 303.842 92.4076C274.025 113.065 258.741 142.641 269.705 158.466C280.67 174.292 313.729 170.375 343.547 149.717Z" fill="url(#paint9_linear_970_178)"></path><path style="mix-blend-mode:screen" opacity="0.6" d="M186.388 215.103C216.206 194.445 231.489 164.87 220.525 149.044C209.561 133.219 176.501 137.136 146.684 157.793C116.866 178.451 101.583 208.026 112.547 223.852C123.511 239.678 156.571 235.761 186.388 215.103Z" fill="url(#paint10_linear_970_178)"></path><defs><linearGradient id="paint0_linear_970_178" x1="144.936" y1="318.064" x2="311.733" y2="29.6958" gradientUnits="userSpaceOnUse"><stop stop-color="#5D7EE0"></stop><stop offset="0.21" stop-color="#3755C4"></stop><stop offset="0.43" stop-color="#1539AB"></stop><stop offset="1" stop-color="#577AE0"></stop></linearGradient><linearGradient id="paint1_linear_970_178" x1="293.199" y1="84.4174" x2="297.531" y2="35.3482" gradientUnits="userSpaceOnUse"><stop stop-color="#010103"></stop><stop offset="0.76" stop-color="#A8BDF5"></stop><stop offset="1" stop-color="white"></stop></linearGradient><linearGradient id="paint2_linear_970_178" x1="52.2287" y1="318.613" x2="176.946" y2="102.986" gradientUnits="userSpaceOnUse"><stop stop-color="#5D7EE0"></stop><stop offset="0.21" stop-color="#3755C4"></stop><stop offset="0.43" stop-color="#1539AB"></stop><stop offset="1" stop-color="#577AE0"></stop></linearGradient><linearGradient id="paint3_linear_970_178" x1="136.564" y1="148.751" x2="141.071" y2="97.7001" gradientUnits="userSpaceOnUse"><stop stop-color="#010103"></stop><stop offset="0.76" stop-color="#A8BDF5"></stop><stop offset="1" stop-color="white"></stop></linearGradient><linearGradient id="paint4_linear_970_178" x1="101.982" y1="342.139" x2="400.947" y2="91.6816" gradientUnits="userSpaceOnUse"><stop stop-color="#5073D9"></stop><stop offset="1" stop-color="#99B4FF"></stop></linearGradient><linearGradient id="paint5_linear_970_178" x1="306.646" y1="230.125" x2="139.735" y2="127.157" gradientUnits="userSpaceOnUse"><stop stop-color="#010103"></stop><stop offset="0.76" stop-color="#A8BDF5"></stop><stop offset="1" stop-color="white"></stop></linearGradient><linearGradient id="paint6_linear_970_178" x1="293.071" y1="176.262" x2="303.787" y2="54.8846" gradientUnits="userSpaceOnUse"><stop></stop><stop offset="1" stop-color="white"></stop></linearGradient><linearGradient id="paint7_linear_970_178" x1="140.793" y1="397.277" x2="165.475" y2="117.724" gradientUnits="userSpaceOnUse"><stop></stop><stop offset="1" stop-color="white"></stop></linearGradient><linearGradient id="paint8_linear_970_178" x1="258.108" y1="371.584" x2="209.808" y2="253.127" gradientUnits="userSpaceOnUse"><stop stop-color="#5C75E0"></stop><stop offset="1" stop-color="white"></stop></linearGradient><linearGradient id="paint9_linear_970_178" x1="310.201" y1="151.625" x2="292.199" y2="105.981" gradientUnits="userSpaceOnUse"><stop stop-color="#010103"></stop><stop offset="0.76" stop-color="#A8BDF5"></stop><stop offset="1" stop-color="white"></stop></linearGradient><linearGradient id="paint10_linear_970_178" x1="154.254" y1="216.527" x2="136.252" y2="170.883" gradientUnits="userSpaceOnUse"><stop stop-color="#010103"></stop><stop offset="0.76" stop-color="#A8BDF5"></stop><stop offset="1" stop-color="white"></stop></linearGradient></defs></svg> 