<?xml version="1.0" encoding="UTF-8"?> <svg xmlns="http://www.w3.org/2000/svg" width="242" height="191" viewBox="0 0 242 191" fill="none"><path d="M76.8501 64.7702H62.5101L31.6001 61.2202L6.1701 58.3002L0.600098 57.6602H14.9401L20.5101 58.3002L45.9401 61.2202L76.8501 64.7702Z" fill="url(#paint0_linear_970_586)"></path><path style="mix-blend-mode:screen" opacity="0.6" d="M14.9402 57.6602H12.9902L74.9002 64.7702H76.8502L14.9402 57.6602Z" fill="url(#paint1_linear_970_586)"></path><path d="M0.600098 57.6602L62.5101 64.7702H63.1601L1.25012 57.6602H0.600098Z" fill="url(#paint2_linear_970_586)"></path><path d="M64.0001 118.24L19.6201 138.1H33.9601L78.3401 118.24H64.0001Z" fill="url(#paint3_linear_970_586)"></path><path style="mix-blend-mode:screen" opacity="0.6" d="M76.39 118.24L32 138.1H33.96L78.34 118.24H76.39Z" fill="url(#paint4_linear_970_586)"></path><path d="M64.0001 118.24L19.6201 138.1H20.2701L64.6501 118.24H64.0001Z" fill="url(#paint5_linear_970_586)"></path><path d="M73.6402 130.02L55.4502 144.84H69.7902L87.9802 130.02H73.6402Z" fill="url(#paint6_linear_970_586)"></path><path style="mix-blend-mode:screen" opacity="0.6" d="M86.0301 130.02L67.8301 144.84H69.7901L87.9801 130.02H86.0301Z" fill="url(#paint7_linear_970_586)"></path><path d="M73.6402 130.02L55.4502 144.84H56.1002L74.2902 130.02H73.6402Z" fill="url(#paint8_linear_970_586)"></path><path d="M97.9 49.5896H83.5601L61.6 30.3896L47.21 17.8096L43.78 14.8096H58.1201L61.55 17.8096L75.94 30.3896L97.9 49.5896Z" fill="url(#paint9_linear_970_586)"></path><path style="mix-blend-mode:screen" opacity="0.6" d="M58.1202 14.8096H56.1702L95.9501 49.5796H97.9001L58.1202 14.8096Z" fill="url(#paint10_linear_970_586)"></path><path d="M43.78 14.8096L83.5601 49.5796H84.21L44.4301 14.8096H43.78Z" fill="url(#paint11_linear_970_586)"></path><path d="M94.1701 134.07L64.3501 190.79H78.6901L108.51 134.07H94.1701Z" fill="url(#paint12_linear_970_586)"></path><path style="mix-blend-mode:screen" opacity="0.6" d="M106.56 134.07L76.7402 190.79H78.6902L108.51 134.07H106.56Z" fill="url(#paint13_linear_970_586)"></path><path d="M94.1701 134.07L64.3501 190.79H65.0001L94.8201 134.07H94.1701Z" fill="url(#paint14_linear_970_586)"></path><path d="M111.68 47.5599H97.3402L90.1002 31.9799L87.5202 26.4399L86.9502 25.21H101.29L101.86 26.4399L104.44 31.9799L111.68 47.5599Z" fill="url(#paint15_linear_970_586)"></path><path style="mix-blend-mode:screen" opacity="0.4" d="M104.44 31.9804H90.1L87.52 26.4404H101.86L104.44 31.9804Z" fill="url(#paint16_linear_970_586)"></path><path style="mix-blend-mode:screen" opacity="0.6" d="M101.29 25.2002H99.3401L109.73 47.5602H111.68L101.29 25.2002Z" fill="url(#paint17_linear_970_586)"></path><path d="M86.9502 25.2002L97.3402 47.5602H97.9902L87.6002 25.2002H86.9502Z" fill="url(#paint18_linear_970_586)"></path><path d="M102.03 134.23L98.1501 141.3H112.49L116.37 134.23H102.03Z" fill="url(#paint19_linear_970_586)"></path><path d="M102.03 134.23L98.1501 141.3H98.8002L102.68 134.23H102.03Z" fill="url(#paint20_linear_970_586)"></path><path d="M136.22 44.8698H121.88L115.67 25.2098L108.4 2.17978L107.72 0.00976562H122.06L122.74 2.17978L130.01 25.2098L136.22 44.8698Z" fill="url(#paint21_linear_970_586)"></path><path style="mix-blend-mode:screen" opacity="0.6" d="M122.06 0H120.11L134.27 44.87H136.23L122.06 0Z" fill="url(#paint22_linear_970_586)"></path><path d="M107.72 0L121.89 44.87H122.54L108.37 0H107.72Z" fill="url(#paint23_linear_970_586)"></path><path d="M121.89 128.68L118.56 175.3H132.9L136.23 128.68H121.89Z" fill="url(#paint24_linear_970_586)"></path><path style="mix-blend-mode:screen" opacity="0.6" d="M134.27 128.68L130.95 175.3H132.9L136.23 128.68H134.27Z" fill="url(#paint25_linear_970_586)"></path><path d="M121.89 128.68L118.56 175.3H119.21L122.54 128.68H121.89Z" fill="url(#paint26_linear_970_586)"></path><path d="M142.93 38.4199H128.59L132.91 46.3399H147.25L142.93 38.4199Z" fill="url(#paint27_linear_970_586)"></path><path d="M128.59 38.4199L132.91 46.3399H133.57L129.24 38.4199H128.59Z" fill="url(#paint28_linear_970_586)"></path><path d="M164.33 179.83H149.99L148.96 173.26L145.49 151.09L140.62 119.92H154.96L159.83 151.09L163.3 173.26L164.33 179.83Z" fill="url(#paint29_linear_970_586)"></path><path style="mix-blend-mode:screen" opacity="0.6" d="M154.96 119.93H153.01L162.38 179.83H164.33L154.96 119.93Z" fill="url(#paint30_linear_970_586)"></path><path d="M140.62 119.93L149.99 179.83H150.64L141.27 119.93H140.62Z" fill="url(#paint31_linear_970_586)"></path><path d="M153.85 23.6699L147.5 52.9499H161.84L168.18 23.6699H153.85Z" fill="url(#paint32_linear_970_586)"></path><path style="mix-blend-mode:screen" opacity="0.6" d="M166.23 23.6699L159.89 52.9499H161.84L168.18 23.6699H166.23Z" fill="url(#paint33_linear_970_586)"></path><path d="M153.85 23.6699L147.5 52.9499H148.16L154.5 23.6699H153.85Z" fill="url(#paint34_linear_970_586)"></path><path d="M164.33 116.22H149.99L154.94 134.96H169.28L164.33 116.22Z" fill="url(#paint35_linear_970_586)"></path><path style="mix-blend-mode:screen" opacity="0.6" d="M164.33 116.22H162.38L167.32 134.96H169.28L164.33 116.22Z" fill="url(#paint36_linear_970_586)"></path><path d="M149.99 116.22L154.94 134.96H155.59L150.64 116.22H149.99Z" fill="url(#paint37_linear_970_586)"></path><path d="M197.13 69.1003H182.79L178.36 68.3103L168.88 66.6203L160.18 65.0703H174.52L183.22 66.6203L192.7 68.3103L197.13 69.1003Z" fill="url(#paint38_linear_970_586)"></path><path style="mix-blend-mode:screen" opacity="0.6" d="M174.52 65.0596H172.57L195.18 69.0996H197.13L174.52 65.0596Z" fill="url(#paint39_linear_970_586)"></path><path d="M160.19 65.0596L182.79 69.0996H183.44L160.84 65.0596H160.19Z" fill="url(#paint40_linear_970_586)"></path><path d="M182.79 69.0996L163.34 83.5696H177.68L197.13 69.0996H182.79Z" fill="url(#paint41_linear_970_586)"></path><path style="mix-blend-mode:screen" opacity="0.6" d="M195.18 69.0996L175.73 83.5696H177.68L197.13 69.0996H195.18Z" fill="url(#paint42_linear_970_586)"></path><path d="M182.79 69.0996L163.34 83.5696H163.99L183.44 69.0996H182.79Z" fill="url(#paint43_linear_970_586)"></path><path d="M184.91 26.4805L160.19 65.0605H174.52L199.24 26.4805H184.91Z" fill="url(#paint44_linear_970_586)"></path><path style="mix-blend-mode:screen" opacity="0.6" d="M197.29 26.4805L172.57 65.0605H174.52L199.24 26.4805H197.29Z" fill="url(#paint45_linear_970_586)"></path><path d="M184.91 26.4805L160.19 65.0605H160.84L185.56 26.4805H184.91Z" fill="url(#paint46_linear_970_586)"></path><path d="M200.44 128.34H186.1L183.17 125.59L175.84 118.699L161.01 104.77H175.35L190.18 118.699L197.51 125.59L200.44 128.34Z" fill="url(#paint47_linear_970_586)"></path><path style="mix-blend-mode:screen" opacity="0.6" d="M175.35 104.77H173.4L198.49 128.34H200.44L175.35 104.77Z" fill="url(#paint48_linear_970_586)"></path><path d="M161.01 104.77L186.1 128.34H186.75L161.66 104.77H161.01Z" fill="url(#paint49_linear_970_586)"></path><path d="M241.5 104.09H227.16L221.62 102.31L182.34 89.6803L163.34 83.5703H177.68L196.68 89.6803L235.96 102.31L241.5 104.09Z" fill="url(#paint50_linear_970_586)"></path><path style="mix-blend-mode:screen" opacity="0.6" d="M177.68 83.5703H175.73L239.55 104.09H241.5L177.68 83.5703Z" fill="url(#paint51_linear_970_586)"></path><path d="M163.34 83.5703L227.16 104.09H227.81L163.99 83.5703H163.34Z" fill="url(#paint52_linear_970_586)"></path><path d="M227.16 104.09L161.01 104.77H175.35L241.5 104.09H227.16Z" fill="url(#paint53_linear_970_586)"></path><path d="M161.01 104.77L227.16 104.09L163.34 83.57L182.79 69.1L160.19 65.06L184.91 26.48L147.5 52.95L153.85 23.67L132.91 46.34L128.59 38.42L121.89 44.87L107.72 0L97.3401 47.56L86.9501 25.2L83.5601 49.58L43.7801 14.81L62.5101 64.77L0.600098 57.66L54.8001 91.5L27.3301 101.4L51.8601 107.46L19.6201 138.1L64.0001 118.24L55.4501 144.84L73.6401 130.02L64.3501 190.79L94.1701 134.07L98.1501 141.3L102.03 134.23L118.56 175.3L121.89 128.68L149.99 179.83L140.62 119.93L154.94 134.96L149.99 116.22L186.1 128.34L161.01 104.77Z" fill="url(#paint54_linear_970_586)"></path><path d="M197.13 69.1002C197.13 69.1802 193.92 69.2502 189.96 69.2502C186 69.2502 182.79 69.1802 182.79 69.1002C182.79 69.0202 186 68.9502 189.96 68.9502C193.92 68.9502 197.13 69.0202 197.13 69.1002Z" fill="#D0E0F7"></path><path style="mix-blend-mode:screen" opacity="0.4" d="M75.9399 30.3896H61.6L47.21 17.8096H61.55L75.9399 30.3896Z" fill="url(#paint55_linear_970_586)"></path><path style="mix-blend-mode:screen" opacity="0.4" d="M45.9401 61.2198H31.6002L6.17017 58.2998H20.5101L45.9401 61.2198Z" fill="url(#paint56_linear_970_586)"></path><path style="mix-blend-mode:screen" opacity="0.4" d="M130.01 25.2097H115.67L108.4 2.17969H122.74L130.01 25.2097Z" fill="url(#paint57_linear_970_586)"></path><path style="mix-blend-mode:screen" opacity="0.4" d="M192.7 68.3101H178.36L168.88 66.6201H183.22L192.7 68.3101Z" fill="url(#paint58_linear_970_586)"></path><path style="mix-blend-mode:screen" opacity="0.4" d="M235.96 102.31H221.62L182.34 89.6797H196.68L235.96 102.31Z" fill="url(#paint59_linear_970_586)"></path><path style="mix-blend-mode:screen" opacity="0.1" d="M163.3 173.26H148.96L145.49 151.09H159.83L163.3 173.26Z" fill="url(#paint60_linear_970_586)"></path><path style="mix-blend-mode:screen" opacity="0.2" d="M197.51 125.59H183.17L175.84 118.7H190.18L197.51 125.59Z" fill="url(#paint61_linear_970_586)"></path><mask id="mask0_970_586" style="mask-type:luminance" maskUnits="userSpaceOnUse" x="0" y="0" width="228" height="191"><path d="M161.01 104.77L227.16 104.09L163.34 83.57L182.79 69.1L160.19 65.06L184.91 26.48L147.5 52.95L153.85 23.67L132.91 46.34L128.59 38.42L121.89 44.87L107.72 0L97.3401 47.56L86.9501 25.2L83.5601 49.58L43.7801 14.81L62.5101 64.77L0.600098 57.66L54.8001 91.5L27.3301 101.4L51.8601 107.46L19.6201 138.1L64.0001 118.24L55.4501 144.84L73.6401 130.02L64.3501 190.79L94.1701 134.07L98.1501 141.3L102.03 134.23L118.56 175.3L121.89 128.68L149.99 179.83L140.62 119.93L154.94 134.96L149.99 116.22L186.1 128.34L161.01 104.77Z" fill="white"></path></mask><g mask="url(#mask0_970_586)"><path style="mix-blend-mode:screen" opacity="0.4" d="M-6.54004 -59.6902V67.3098C23.46 64.3698 58.78 68.7898 94.62 81.5198C143.48 98.8898 182.54 127.91 203.54 158.88H246.75V-59.7002H-6.54004V-59.6902Z" fill="url(#paint62_linear_970_586)"></path></g><defs><linearGradient id="paint0_linear_970_586" x1="38.7301" y1="64.7702" x2="38.7301" y2="57.6602" gradientUnits="userSpaceOnUse"><stop stop-color="#025CC7"></stop><stop offset="0.07" stop-color="#0D60D9"></stop><stop offset="0.15" stop-color="#1664E7"></stop><stop offset="0.21" stop-color="#1A66ED"></stop><stop offset="0.31" stop-color="#296FEF"></stop><stop offset="0.78" stop-color="#6B9BF8"></stop><stop offset="1" stop-color="#86ACFC"></stop></linearGradient><linearGradient id="paint1_linear_970_586" x1="44.9202" y1="64.7702" x2="44.9202" y2="57.6602" gradientUnits="userSpaceOnUse"><stop stop-color="#025CC7"></stop><stop offset="0.07" stop-color="#0D60D9"></stop><stop offset="0.15" stop-color="#1664E7"></stop><stop offset="0.21" stop-color="#1A66ED"></stop><stop offset="0.31" stop-color="#296FEF"></stop><stop offset="0.78" stop-color="#6B9BF8"></stop><stop offset="1" stop-color="#86ACFC"></stop></linearGradient><linearGradient id="paint2_linear_970_586" x1="31.8801" y1="64.7702" x2="31.8801" y2="57.6602" gradientUnits="userSpaceOnUse"><stop stop-color="#025CC7"></stop><stop offset="0.11" stop-color="#2773D0"></stop><stop offset="0.28" stop-color="#5C95DD"></stop><stop offset="0.44" stop-color="#87B0E8"></stop><stop offset="0.6" stop-color="#A9C6F0"></stop><stop offset="0.75" stop-color="#C2D5F7"></stop><stop offset="0.89" stop-color="#D0DEFA"></stop><stop offset="1" stop-color="#D6E2FC"></stop></linearGradient><linearGradient id="paint3_linear_970_586" x1="48.9801" y1="138.1" x2="48.9801" y2="118.24" gradientUnits="userSpaceOnUse"><stop stop-color="#3576FC"></stop><stop offset="0.54" stop-color="#1B6DEB"></stop><stop offset="1" stop-color="#0265DB"></stop></linearGradient><linearGradient id="paint4_linear_970_586" x1="55.17" y1="-398.769" x2="55.17" y2="-398.769" gradientUnits="userSpaceOnUse"><stop stop-color="#3576FC"></stop><stop offset="0.54" stop-color="#1B6DEB"></stop><stop offset="1" stop-color="#0265DB"></stop></linearGradient><linearGradient id="paint5_linear_970_586" x1="42.1301" y1="138.1" x2="42.1301" y2="118.24" gradientUnits="userSpaceOnUse"><stop stop-color="#C7D8FC"></stop><stop offset="0.16" stop-color="#ACC8F7"></stop><stop offset="0.51" stop-color="#69A1EC"></stop><stop offset="1" stop-color="#0265DB"></stop></linearGradient><linearGradient id="paint6_linear_970_586" x1="71.7102" y1="144.84" x2="71.7102" y2="130.02" gradientUnits="userSpaceOnUse"><stop stop-color="#1657DE"></stop><stop offset="1" stop-color="#024CA6"></stop></linearGradient><linearGradient id="paint7_linear_970_586" x1="77.9101" y1="-398.771" x2="77.9101" y2="-398.771" gradientUnits="userSpaceOnUse"><stop stop-color="#1657DE"></stop><stop offset="1" stop-color="#024CA6"></stop></linearGradient><linearGradient id="paint8_linear_970_586" x1="64.8702" y1="144.84" x2="64.8702" y2="130.02" gradientUnits="userSpaceOnUse"><stop stop-color="#B6CAF2"></stop><stop offset="0.6" stop-color="#4B7FC4"></stop><stop offset="1" stop-color="#024CA6"></stop></linearGradient><linearGradient id="paint9_linear_970_586" x1="70.84" y1="49.5896" x2="70.84" y2="14.8096" gradientUnits="userSpaceOnUse"><stop stop-color="#025CC7"></stop><stop offset="0.07" stop-color="#0D60D9"></stop><stop offset="0.15" stop-color="#1664E7"></stop><stop offset="0.21" stop-color="#1A66ED"></stop><stop offset="0.31" stop-color="#296FEF"></stop><stop offset="0.78" stop-color="#6B9BF8"></stop><stop offset="1" stop-color="#86ACFC"></stop></linearGradient><linearGradient id="paint10_linear_970_586" x1="77.0402" y1="49.5796" x2="77.0402" y2="14.8096" gradientUnits="userSpaceOnUse"><stop stop-color="#025CC7"></stop><stop offset="0.07" stop-color="#0D60D9"></stop><stop offset="0.15" stop-color="#1664E7"></stop><stop offset="0.21" stop-color="#1A66ED"></stop><stop offset="0.31" stop-color="#296FEF"></stop><stop offset="0.78" stop-color="#6B9BF8"></stop><stop offset="1" stop-color="#86ACFC"></stop></linearGradient><linearGradient id="paint11_linear_970_586" x1="64" y1="49.5796" x2="64" y2="14.8096" gradientUnits="userSpaceOnUse"><stop stop-color="#023BBC"></stop><stop offset="0.16" stop-color="#3F6BCE"></stop><stop offset="0.32" stop-color="#7394DC"></stop><stop offset="0.47" stop-color="#9EB5E9"></stop><stop offset="0.62" stop-color="#BFCFF2"></stop><stop offset="0.76" stop-color="#D7E1F9"></stop><stop offset="0.89" stop-color="#E6EDFD"></stop><stop offset="1" stop-color="#EBF1FF"></stop></linearGradient><linearGradient id="paint12_linear_970_586" x1="86.4301" y1="190.79" x2="86.4301" y2="134.07" gradientUnits="userSpaceOnUse"><stop stop-color="#3576FC"></stop><stop offset="0.54" stop-color="#1B6DEB"></stop><stop offset="1" stop-color="#0265DB"></stop></linearGradient><linearGradient id="paint13_linear_970_586" x1="92.6302" y1="190.79" x2="92.6302" y2="134.07" gradientUnits="userSpaceOnUse"><stop stop-color="#3576FC"></stop><stop offset="0.54" stop-color="#1B6DEB"></stop><stop offset="1" stop-color="#0265DB"></stop></linearGradient><linearGradient id="paint14_linear_970_586" x1="79.5901" y1="190.79" x2="79.5901" y2="134.07" gradientUnits="userSpaceOnUse"><stop stop-color="#B5CDFC"></stop><stop offset="0.18" stop-color="#9ABDF7"></stop><stop offset="0.56" stop-color="#5796EA"></stop><stop offset="1" stop-color="#0265DB"></stop></linearGradient><linearGradient id="paint15_linear_970_586" x1="99.3202" y1="47.5599" x2="99.3202" y2="25.21" gradientUnits="userSpaceOnUse"><stop stop-color="#025CC7"></stop><stop offset="0.07" stop-color="#0D60D9"></stop><stop offset="0.15" stop-color="#1664E7"></stop><stop offset="0.21" stop-color="#1A66ED"></stop><stop offset="0.23" stop-color="#1C67ED"></stop><stop offset="0.75" stop-color="#5E92F7"></stop><stop offset="1" stop-color="#79A4FC"></stop></linearGradient><linearGradient id="paint16_linear_970_586" x1="95.98" y1="26.4404" x2="95.98" y2="31.9804" gradientUnits="userSpaceOnUse"><stop stop-color="#F2F2F2"></stop><stop offset="1" stop-color="#474747"></stop></linearGradient><linearGradient id="paint17_linear_970_586" x1="105.51" y1="47.5602" x2="105.51" y2="25.2002" gradientUnits="userSpaceOnUse"><stop stop-color="#025CC7"></stop><stop offset="0.07" stop-color="#0D60D9"></stop><stop offset="0.15" stop-color="#1664E7"></stop><stop offset="0.21" stop-color="#1A66ED"></stop><stop offset="0.23" stop-color="#1C67ED"></stop><stop offset="0.75" stop-color="#5E92F7"></stop><stop offset="1" stop-color="#79A4FC"></stop></linearGradient><linearGradient id="paint18_linear_970_586" x1="92.4702" y1="47.5602" x2="92.4702" y2="25.2002" gradientUnits="userSpaceOnUse"><stop stop-color="#023BBC"></stop><stop offset="0.16" stop-color="#3F6BCE"></stop><stop offset="0.32" stop-color="#7394DC"></stop><stop offset="0.47" stop-color="#9EB5E9"></stop><stop offset="0.62" stop-color="#BFCFF2"></stop><stop offset="0.76" stop-color="#D7E1F9"></stop><stop offset="0.89" stop-color="#E6EDFD"></stop><stop offset="1" stop-color="#EBF1FF"></stop></linearGradient><linearGradient id="paint19_linear_970_586" x1="107.26" y1="141.3" x2="107.26" y2="134.23" gradientUnits="userSpaceOnUse"><stop stop-color="#1657DE"></stop><stop offset="1" stop-color="#024CA6"></stop></linearGradient><linearGradient id="paint20_linear_970_586" x1="100.42" y1="141.3" x2="100.42" y2="134.23" gradientUnits="userSpaceOnUse"><stop stop-color="#90A9DE"></stop><stop offset="0.76" stop-color="#2562B3"></stop><stop offset="1" stop-color="#024CA6"></stop></linearGradient><linearGradient id="paint21_linear_970_586" x1="121.97" y1="44.8698" x2="121.97" y2="0.00976562" gradientUnits="userSpaceOnUse"><stop stop-color="#025CC7"></stop><stop offset="0.07" stop-color="#0D60D9"></stop><stop offset="0.15" stop-color="#1664E7"></stop><stop offset="0.21" stop-color="#1A66ED"></stop><stop offset="0.23" stop-color="#1C67ED"></stop><stop offset="0.75" stop-color="#5E92F7"></stop><stop offset="1" stop-color="#79A4FC"></stop></linearGradient><linearGradient id="paint22_linear_970_586" x1="128.17" y1="44.87" x2="128.17" y2="0" gradientUnits="userSpaceOnUse"><stop stop-color="#025CC7"></stop><stop offset="0.07" stop-color="#0D60D9"></stop><stop offset="0.15" stop-color="#1664E7"></stop><stop offset="0.21" stop-color="#1A66ED"></stop><stop offset="0.23" stop-color="#1C67ED"></stop><stop offset="0.75" stop-color="#5E92F7"></stop><stop offset="1" stop-color="#79A4FC"></stop></linearGradient><linearGradient id="paint23_linear_970_586" x1="115.13" y1="44.87" x2="115.13" y2="0" gradientUnits="userSpaceOnUse"><stop stop-color="#023BBC"></stop><stop offset="0.16" stop-color="#3F6BCE"></stop><stop offset="0.32" stop-color="#7394DC"></stop><stop offset="0.47" stop-color="#9EB5E9"></stop><stop offset="0.62" stop-color="#BFCFF2"></stop><stop offset="0.76" stop-color="#D7E1F9"></stop><stop offset="0.89" stop-color="#E6EDFD"></stop><stop offset="1" stop-color="#EBF1FF"></stop></linearGradient><linearGradient id="paint24_linear_970_586" x1="127.39" y1="175.3" x2="127.39" y2="128.68" gradientUnits="userSpaceOnUse"><stop stop-color="#3576FC"></stop><stop offset="0.54" stop-color="#1B6DEB"></stop><stop offset="1" stop-color="#0265DB"></stop></linearGradient><linearGradient id="paint25_linear_970_586" x1="133.59" y1="175.3" x2="133.59" y2="128.68" gradientUnits="userSpaceOnUse"><stop stop-color="#3576FC"></stop><stop offset="0.54" stop-color="#1B6DEB"></stop><stop offset="1" stop-color="#0265DB"></stop></linearGradient><linearGradient id="paint26_linear_970_586" x1="120.55" y1="175.3" x2="120.55" y2="128.68" gradientUnits="userSpaceOnUse"><stop stop-color="#BACFFC"></stop><stop offset="0.17" stop-color="#9FBFF7"></stop><stop offset="0.54" stop-color="#5C99EB"></stop><stop offset="1" stop-color="#0265DB"></stop></linearGradient><linearGradient id="paint27_linear_970_586" x1="137.92" y1="46.3399" x2="137.92" y2="38.4199" gradientUnits="userSpaceOnUse"><stop stop-color="#0151B0"></stop><stop offset="0.27" stop-color="#0E5AD0"></stop><stop offset="0.54" stop-color="#1862E8"></stop><stop offset="0.79" stop-color="#1E66F6"></stop><stop offset="1" stop-color="#2168FC"></stop></linearGradient><linearGradient id="paint28_linear_970_586" x1="131.08" y1="46.3399" x2="131.08" y2="38.4199" gradientUnits="userSpaceOnUse"><stop stop-color="#0265DB"></stop><stop offset="0.03" stop-color="#0665DE"></stop><stop offset="0.15" stop-color="#1465E9"></stop><stop offset="0.25" stop-color="#1A66ED"></stop><stop offset="0.61" stop-color="#80AAF4"></stop><stop offset="0.88" stop-color="#C3D6F9"></stop><stop offset="1" stop-color="#DEE8FC"></stop></linearGradient><linearGradient id="paint29_linear_970_586" x1="152.48" y1="179.83" x2="152.48" y2="119.92" gradientUnits="userSpaceOnUse"><stop stop-color="#5B8FFC"></stop><stop offset="0.33" stop-color="#407EF5"></stop><stop offset="0.75" stop-color="#1A66ED"></stop><stop offset="0.85" stop-color="#1465E9"></stop><stop offset="0.97" stop-color="#0665DE"></stop><stop offset="1" stop-color="#0265DB"></stop></linearGradient><linearGradient id="paint30_linear_970_586" x1="158.67" y1="-398.77" x2="158.67" y2="119.93" gradientUnits="userSpaceOnUse"><stop stop-color="#5B8FFC"></stop><stop offset="0.33" stop-color="#407EF5"></stop><stop offset="0.75" stop-color="#1A66ED"></stop><stop offset="0.85" stop-color="#1465E9"></stop><stop offset="0.97" stop-color="#0665DE"></stop><stop offset="1" stop-color="#0265DB"></stop></linearGradient><linearGradient id="paint31_linear_970_586" x1="145.63" y1="179.83" x2="145.63" y2="119.93" gradientUnits="userSpaceOnUse"><stop stop-color="#D4E1FC"></stop><stop offset="0.15" stop-color="#B9D1F7"></stop><stop offset="0.48" stop-color="#76A9ED"></stop><stop offset="0.96" stop-color="#0C6ADC"></stop><stop offset="1" stop-color="#0265DB"></stop></linearGradient><linearGradient id="paint32_linear_970_586" x1="157.84" y1="52.9499" x2="157.84" y2="23.6699" gradientUnits="userSpaceOnUse"><stop stop-color="#0265DB"></stop><stop offset="0.03" stop-color="#0665DE"></stop><stop offset="0.15" stop-color="#1465E9"></stop><stop offset="0.25" stop-color="#1A66ED"></stop><stop offset="0.67" stop-color="#407EF5"></stop><stop offset="1" stop-color="#5B8FFC"></stop></linearGradient><linearGradient id="paint33_linear_970_586" x1="164.04" y1="52.9499" x2="164.04" y2="23.6699" gradientUnits="userSpaceOnUse"><stop stop-color="#0265DB"></stop><stop offset="0.03" stop-color="#0665DE"></stop><stop offset="0.15" stop-color="#1465E9"></stop><stop offset="0.25" stop-color="#1A66ED"></stop><stop offset="0.67" stop-color="#407EF5"></stop><stop offset="1" stop-color="#5B8FFC"></stop></linearGradient><linearGradient id="paint34_linear_970_586" x1="151" y1="52.9499" x2="151" y2="23.6699" gradientUnits="userSpaceOnUse"><stop stop-color="#0265DB"></stop><stop offset="0.14" stop-color="#3684E2"></stop><stop offset="0.3" stop-color="#6BA4EA"></stop><stop offset="0.46" stop-color="#96BEF0"></stop><stop offset="0.61" stop-color="#B8D2F5"></stop><stop offset="0.76" stop-color="#D1E1F9"></stop><stop offset="0.89" stop-color="#DFE9FB"></stop><stop offset="1" stop-color="#E5EDFC"></stop></linearGradient><linearGradient id="paint35_linear_970_586" x1="159.63" y1="134.96" x2="159.63" y2="116.22" gradientUnits="userSpaceOnUse"><stop stop-color="#5B8FFC"></stop><stop offset="0.33" stop-color="#407EF5"></stop><stop offset="0.75" stop-color="#1A66ED"></stop><stop offset="0.85" stop-color="#1465E9"></stop><stop offset="0.97" stop-color="#0665DE"></stop><stop offset="1" stop-color="#0265DB"></stop></linearGradient><linearGradient id="paint36_linear_970_586" x1="165.83" y1="134.96" x2="165.83" y2="116.22" gradientUnits="userSpaceOnUse"><stop stop-color="#5B8FFC"></stop><stop offset="0.33" stop-color="#407EF5"></stop><stop offset="0.75" stop-color="#1A66ED"></stop><stop offset="0.85" stop-color="#1465E9"></stop><stop offset="0.97" stop-color="#0665DE"></stop><stop offset="1" stop-color="#0265DB"></stop></linearGradient><linearGradient id="paint37_linear_970_586" x1="152.79" y1="134.96" x2="152.79" y2="116.22" gradientUnits="userSpaceOnUse"><stop stop-color="#BDD2FC"></stop><stop offset="0.17" stop-color="#A2C2F7"></stop><stop offset="0.53" stop-color="#5F9BEB"></stop><stop offset="1" stop-color="#0265DB"></stop></linearGradient><linearGradient id="paint38_linear_970_586" x1="178.66" y1="69.1003" x2="178.66" y2="65.0703" gradientUnits="userSpaceOnUse"><stop stop-color="#9FBDFC"></stop><stop offset="0.13" stop-color="#93B6FA"></stop><stop offset="0.36" stop-color="#74A5F7"></stop><stop offset="0.66" stop-color="#4289F1"></stop><stop offset="1" stop-color="#0265EA"></stop></linearGradient><linearGradient id="paint39_linear_970_586" x1="184.85" y1="-398.771" x2="184.85" y2="65.0596" gradientUnits="userSpaceOnUse"><stop stop-color="#9FBDFC"></stop><stop offset="0.13" stop-color="#93B6FA"></stop><stop offset="0.36" stop-color="#74A5F7"></stop><stop offset="0.66" stop-color="#4289F1"></stop><stop offset="1" stop-color="#0265EA"></stop></linearGradient><linearGradient id="paint40_linear_970_586" x1="171.81" y1="69.0996" x2="171.81" y2="65.0596" gradientUnits="userSpaceOnUse"><stop stop-color="#E8EEFC"></stop><stop offset="0.09" stop-color="#DCE7FB"></stop><stop offset="0.26" stop-color="#BDD4F8"></stop><stop offset="0.49" stop-color="#8BB6F4"></stop><stop offset="0.75" stop-color="#478EEF"></stop><stop offset="1" stop-color="#0265EA"></stop></linearGradient><linearGradient id="paint41_linear_970_586" x1="180.23" y1="83.5696" x2="180.23" y2="69.0996" gradientUnits="userSpaceOnUse"><stop stop-color="#0265DB"></stop><stop offset="0.03" stop-color="#0665DE"></stop><stop offset="0.15" stop-color="#1465E9"></stop><stop offset="0.25" stop-color="#1A66ED"></stop><stop offset="0.67" stop-color="#407EF5"></stop><stop offset="1" stop-color="#5B8FFC"></stop></linearGradient><linearGradient id="paint42_linear_970_586" x1="186.43" y1="83.5696" x2="186.43" y2="69.0996" gradientUnits="userSpaceOnUse"><stop stop-color="#0265DB"></stop><stop offset="0.03" stop-color="#0665DE"></stop><stop offset="0.15" stop-color="#1465E9"></stop><stop offset="0.25" stop-color="#1A66ED"></stop><stop offset="0.67" stop-color="#407EF5"></stop><stop offset="1" stop-color="#5B8FFC"></stop></linearGradient><linearGradient id="paint43_linear_970_586" x1="173.39" y1="83.5696" x2="173.39" y2="69.0996" gradientUnits="userSpaceOnUse"><stop stop-color="#0265DB"></stop><stop offset="0.13" stop-color="#2F80E1"></stop><stop offset="0.29" stop-color="#649FE9"></stop><stop offset="0.45" stop-color="#8FB9F0"></stop><stop offset="0.61" stop-color="#B1CDF5"></stop><stop offset="0.75" stop-color="#CADCF9"></stop><stop offset="0.89" stop-color="#D8E4FB"></stop><stop offset="1" stop-color="#DEE8FC"></stop></linearGradient><linearGradient id="paint44_linear_970_586" x1="179.72" y1="65.0605" x2="179.72" y2="26.4805" gradientUnits="userSpaceOnUse"><stop stop-color="#0265DB"></stop><stop offset="0.03" stop-color="#0665DE"></stop><stop offset="0.15" stop-color="#1465E9"></stop><stop offset="0.25" stop-color="#1A66ED"></stop><stop offset="0.67" stop-color="#407EF5"></stop><stop offset="1" stop-color="#5B8FFC"></stop></linearGradient><linearGradient id="paint45_linear_970_586" x1="185.91" y1="65.0605" x2="185.91" y2="26.4805" gradientUnits="userSpaceOnUse"><stop stop-color="#0265DB"></stop><stop offset="0.03" stop-color="#0665DE"></stop><stop offset="0.15" stop-color="#1465E9"></stop><stop offset="0.25" stop-color="#1A66ED"></stop><stop offset="0.67" stop-color="#407EF5"></stop><stop offset="1" stop-color="#5B8FFC"></stop></linearGradient><linearGradient id="paint46_linear_970_586" x1="172.87" y1="65.0605" x2="172.87" y2="26.4805" gradientUnits="userSpaceOnUse"><stop stop-color="#0265DB"></stop><stop offset="0.16" stop-color="#3F8AE3"></stop><stop offset="0.32" stop-color="#75AAEB"></stop><stop offset="0.48" stop-color="#A0C4F1"></stop><stop offset="0.62" stop-color="#C2D8F5"></stop><stop offset="0.76" stop-color="#DBE7F9"></stop><stop offset="0.89" stop-color="#E9EFFB"></stop><stop offset="1" stop-color="#EFF3FC"></stop></linearGradient><linearGradient id="paint47_linear_970_586" x1="180.73" y1="128.34" x2="180.73" y2="104.77" gradientUnits="userSpaceOnUse"><stop stop-color="#5B8FFC"></stop><stop offset="0.33" stop-color="#407EF5"></stop><stop offset="0.75" stop-color="#1A66ED"></stop><stop offset="0.85" stop-color="#1465E9"></stop><stop offset="0.97" stop-color="#0665DE"></stop><stop offset="1" stop-color="#0265DB"></stop></linearGradient><linearGradient id="paint48_linear_970_586" x1="186.92" y1="128.34" x2="186.92" y2="104.77" gradientUnits="userSpaceOnUse"><stop stop-color="#5B8FFC"></stop><stop offset="0.33" stop-color="#407EF5"></stop><stop offset="0.75" stop-color="#1A66ED"></stop><stop offset="0.85" stop-color="#1465E9"></stop><stop offset="0.97" stop-color="#0665DE"></stop><stop offset="1" stop-color="#0265DB"></stop></linearGradient><linearGradient id="paint49_linear_970_586" x1="173.88" y1="128.34" x2="173.88" y2="104.77" gradientUnits="userSpaceOnUse"><stop stop-color="#EAF0FC"></stop><stop offset="0.14" stop-color="#CFE0F8"></stop><stop offset="0.44" stop-color="#8CB8EE"></stop><stop offset="0.87" stop-color="#2178DF"></stop><stop offset="1" stop-color="#0265DB"></stop></linearGradient><linearGradient id="paint50_linear_970_586" x1="202.42" y1="104.09" x2="202.42" y2="83.5703" gradientUnits="userSpaceOnUse"><stop stop-color="#9FBDFC"></stop><stop offset="0.13" stop-color="#93B6FA"></stop><stop offset="0.36" stop-color="#74A5F7"></stop><stop offset="0.66" stop-color="#4289F1"></stop><stop offset="1" stop-color="#0265EA"></stop></linearGradient><linearGradient id="paint51_linear_970_586" x1="208.62" y1="104.09" x2="208.62" y2="83.5703" gradientUnits="userSpaceOnUse"><stop stop-color="#9FBDFC"></stop><stop offset="0.13" stop-color="#93B6FA"></stop><stop offset="0.36" stop-color="#74A5F7"></stop><stop offset="0.66" stop-color="#4289F1"></stop><stop offset="1" stop-color="#0265EA"></stop></linearGradient><linearGradient id="paint52_linear_970_586" x1="195.58" y1="104.09" x2="195.58" y2="83.5703" gradientUnits="userSpaceOnUse"><stop stop-color="#EDF2FC"></stop><stop offset="0.13" stop-color="#E8EFFB"></stop><stop offset="0.26" stop-color="#DCE8FA"></stop><stop offset="0.39" stop-color="#C8DBF9"></stop><stop offset="0.52" stop-color="#ABCAF6"></stop><stop offset="0.66" stop-color="#86B4F4"></stop><stop offset="0.79" stop-color="#5898F0"></stop><stop offset="0.92" stop-color="#2379EC"></stop><stop offset="1" stop-color="#0265EA"></stop></linearGradient><linearGradient id="paint53_linear_970_586" x1="201.26" y1="104.77" x2="201.26" y2="104.09" gradientUnits="userSpaceOnUse"><stop stop-color="#0265DB"></stop><stop offset="0.03" stop-color="#0665DE"></stop><stop offset="0.15" stop-color="#1465E9"></stop><stop offset="0.25" stop-color="#1A66ED"></stop><stop offset="0.67" stop-color="#407EF5"></stop><stop offset="1" stop-color="#5B8FFC"></stop></linearGradient><linearGradient id="paint54_linear_970_586" x1="113.88" y1="0" x2="113.88" y2="190.79" gradientUnits="userSpaceOnUse"><stop stop-color="#CCDEFF"></stop><stop offset="1" stop-color="#3B82FF"></stop></linearGradient><linearGradient id="paint55_linear_970_586" x1="61.58" y1="17.8096" x2="61.58" y2="30.3896" gradientUnits="userSpaceOnUse"><stop stop-color="#F2F2F2"></stop><stop offset="1" stop-color="#474747"></stop></linearGradient><linearGradient id="paint56_linear_970_586" x1="26.0601" y1="58.2998" x2="26.0601" y2="61.2198" gradientUnits="userSpaceOnUse"><stop stop-color="#F2F2F2"></stop><stop offset="1" stop-color="#474747"></stop></linearGradient><linearGradient id="paint57_linear_970_586" x1="119.21" y1="2.17969" x2="119.21" y2="25.2097" gradientUnits="userSpaceOnUse"><stop stop-color="#F2F2F2"></stop><stop offset="1" stop-color="#474747"></stop></linearGradient><linearGradient id="paint58_linear_970_586" x1="180.79" y1="66.6201" x2="180.79" y2="68.3101" gradientUnits="userSpaceOnUse"><stop stop-color="#F2F2F2"></stop><stop offset="1" stop-color="#474747"></stop></linearGradient><linearGradient id="paint59_linear_970_586" x1="209.15" y1="89.6797" x2="209.15" y2="102.31" gradientUnits="userSpaceOnUse"><stop stop-color="#F2F2F2"></stop><stop offset="1" stop-color="#474747"></stop></linearGradient><linearGradient id="paint60_linear_970_586" x1="154.4" y1="151.09" x2="154.4" y2="173.26" gradientUnits="userSpaceOnUse"><stop stop-color="#F2F2F2"></stop><stop offset="1" stop-color="#474747"></stop></linearGradient><linearGradient id="paint61_linear_970_586" x1="186.68" y1="118.7" x2="186.68" y2="125.59" gradientUnits="userSpaceOnUse"><stop stop-color="#F2F2F2"></stop><stop offset="1" stop-color="#474747"></stop></linearGradient><linearGradient id="paint62_linear_970_586" x1="79.19" y1="118.34" x2="201.28" y2="-86.7602" gradientUnits="userSpaceOnUse"><stop stop-color="white"></stop><stop offset="0.06" stop-color="#DADADA"></stop><stop offset="0.15" stop-color="#A8A8A8"></stop><stop offset="0.25" stop-color="#7B7B7B"></stop><stop offset="0.35" stop-color="#555555"></stop><stop offset="0.45" stop-color="#363636"></stop><stop offset="0.56" stop-color="#1E1E1E"></stop><stop offset="0.67" stop-color="#0D0D0D"></stop><stop offset="0.79" stop-color="#030303"></stop><stop offset="0.94"></stop></linearGradient></defs></svg> 