<?xml version="1.0" encoding="UTF-8"?> <svg xmlns="http://www.w3.org/2000/svg" width="410" height="397" viewBox="0 0 410 397" fill="none"><path d="M246.4 260.062L375.73 36.152L315.73 6.132C315.32 5.922 314.91 5.71195 314.5 5.52195C296.26 -3.28805 271.26 -1.84799 243.66 11.952L101.83 82.882C46.0201 110.792 0.77002 178.662 0.77002 234.472C0.77002 262.712 12.36 282.442 31.03 291.442L92.26 322.082L135.68 268.062L246.4 260.062Z" fill="url(#paint0_linear_970_211)"></path><path style="mix-blend-mode:screen" opacity="0.6" d="M212.71 27.4321L323.99 82.832C325.17 79.412 326.22 75.9921 327.13 72.5721L224.59 21.4821L212.7 27.4221L212.71 27.4321ZM268.43 2.62207C260.5 4.59207 252.21 7.67209 243.66 11.9521L234.15 16.7021L329.1 64.0021L356.6 46.6221L268.42 2.62207H268.43Z" fill="url(#paint1_linear_970_211)"></path><path d="M135.68 268.062V365.752L196.91 396.382L246.4 260.062L135.68 268.062Z" fill="url(#paint2_linear_970_211)"></path><path d="M305.65 42.5819L163.82 113.512C108.01 141.422 62.76 209.292 62.76 265.102C62.76 320.912 108 343.532 163.82 315.622L197.67 298.692V396.382L256.66 269.192L305.65 244.692C361.46 216.782 406.71 148.912 406.71 93.1019C406.71 37.2919 361.47 14.6719 305.65 42.5819Z" fill="url(#paint3_linear_970_211)"></path><g style="mix-blend-mode:screen"><path d="M197.49 298.692H196.38V396.382H197.49V298.692Z" fill="url(#paint4_linear_970_211)"></path></g><path style="mix-blend-mode:screen" opacity="0.6" d="M75.5901 308.922C132.87 168.792 375.9 257.682 405.33 82.1123C399.71 34.4423 356.9 16.5922 304.91 42.5922L163.08 113.522C107.27 141.432 62.02 209.302 62.02 265.112C62.02 283.552 66.9601 298.362 75.5901 308.932V308.922Z" fill="url(#paint5_linear_970_211)"></path><path style="mix-blend-mode:screen" opacity="0.6" d="M340.222 147.045C378.551 115.155 395.901 72.8113 378.975 52.4665C362.048 32.1217 317.254 41.4804 278.925 73.3697C240.596 105.259 223.246 147.603 240.173 167.948C257.099 188.293 301.893 178.934 340.222 147.045Z" fill="url(#paint6_linear_970_211)"></path><path style="mix-blend-mode:multiply" opacity="0.5" d="M246.309 263.806C315.68 227.014 366.729 187.407 360.33 175.341C353.93 163.275 292.506 183.319 223.135 220.112C153.764 256.904 102.716 296.511 109.115 308.577C115.514 320.643 176.938 300.598 246.309 263.806Z" fill="url(#paint7_linear_970_211)"></path><path style="mix-blend-mode:screen" opacity="0.3" d="M250.89 8.5918L101.84 82.8818C46.0301 110.792 0.780029 178.662 0.780029 234.472C0.780029 246.392 2.85001 256.782 6.64001 265.502C6.45001 263.702 6.30008 261.892 6.21008 260.082C5.18008 239.272 10.6 218.022 22.28 200.682C39.46 175.162 68.23 158.522 82.78 131.422C88.31 121.112 91.79 109.312 100.16 101.142C108.17 93.3318 119.34 89.7118 130.21 87.0518C239.48 60.3018 298.32 26.7918 250.9 8.5918H250.89Z" fill="url(#paint8_linear_970_211)"></path><g style="mix-blend-mode:screen"><path d="M62.5802 265.102H61.4702C61.4702 209.192 106.94 140.962 162.83 113.012L304.66 42.0815C323 32.9115 340.98 28.8616 356.66 30.3816L356.55 31.4916C341.07 30.0016 323.3 34.0115 305.15 43.0815L163.32 114.012C107.77 141.792 62.5702 209.572 62.5702 265.112L62.5802 265.102Z" fill="url(#paint9_linear_970_211)"></path></g><defs><linearGradient id="paint0_linear_970_211" x1="94.97" y1="321.192" x2="253.66" y2="-19.118" gradientUnits="userSpaceOnUse"><stop stop-color="#89A3FF"></stop><stop offset="0.09" stop-color="#3755C4"></stop><stop offset="0.3" stop-color="#1539AB"></stop><stop offset="0.47" stop-color="#577AE0"></stop><stop offset="0.88" stop-color="#577AE0"></stop><stop offset="1" stop-color="#A8BDFF"></stop></linearGradient><linearGradient id="paint1_linear_970_211" x1="284.66" y1="68.022" x2="284.66" y2="14.7321" gradientUnits="userSpaceOnUse"><stop stop-color="#010103"></stop><stop offset="0.76" stop-color="#A8BDF5"></stop><stop offset="1" stop-color="white"></stop></linearGradient><linearGradient id="paint2_linear_970_211" x1="147.5" y1="372.522" x2="185.64" y2="290.732" gradientUnits="userSpaceOnUse"><stop stop-color="#5D7EE0"></stop><stop offset="0.41" stop-color="#3755C4"></stop><stop offset="1" stop-color="#1539AB"></stop></linearGradient><linearGradient id="paint3_linear_970_211" x1="98.38" y1="331.332" x2="386.97" y2="42.7519" gradientUnits="userSpaceOnUse"><stop stop-color="#5073D9"></stop><stop offset="1" stop-color="#99B4FF"></stop></linearGradient><linearGradient id="paint4_linear_970_211" x1="221.63" y1="372.232" x2="172.23" y2="322.833" gradientUnits="userSpaceOnUse"><stop></stop><stop offset="1" stop-color="white"></stop></linearGradient><linearGradient id="paint5_linear_970_211" x1="255.84" y1="217.302" x2="203.79" y2="126.292" gradientUnits="userSpaceOnUse"><stop stop-color="#010103"></stop><stop offset="0.76" stop-color="#A8BDF5"></stop><stop offset="1" stop-color="white"></stop></linearGradient><linearGradient id="paint6_linear_970_211" x1="555.382" y1="20.0987" x2="525.215" y2="-40.2226" gradientUnits="userSpaceOnUse"><stop stop-color="#010103"></stop><stop offset="0.76" stop-color="#A8BDF5"></stop><stop offset="1" stop-color="white"></stop></linearGradient><linearGradient id="paint7_linear_970_211" x1="340.482" y1="231.511" x2="264.561" y2="156.392" gradientUnits="userSpaceOnUse"><stop stop-color="#5C75E0"></stop><stop offset="1" stop-color="white"></stop></linearGradient><linearGradient id="paint8_linear_970_211" x1="0.780029" y1="137.052" x2="273.17" y2="137.052" gradientUnits="userSpaceOnUse"><stop stop-color="#294BB0"></stop><stop offset="1" stop-color="#AFC4FF"></stop></linearGradient><linearGradient id="paint9_linear_970_211" x1="224.69" y1="163.362" x2="162.62" y2="101.292" gradientUnits="userSpaceOnUse"><stop></stop><stop offset="1" stop-color="white"></stop></linearGradient></defs></svg> 