<?xml version="1.0" encoding="UTF-8"?> <svg xmlns="http://www.w3.org/2000/svg" width="138" height="138" viewBox="0 0 138 138" fill="none"><rect x="3.5" y="3.5" width="131" height="131" rx="16.5" fill="white"></rect><rect x="3.5" y="3.5" width="131" height="131" rx="16.5" stroke="#0056F9" stroke-width="7"></rect><path d="M68.8284 20C41.8751 20 20 41.8751 20 68.8284C20 95.7817 41.8751 117.657 68.8284 117.657C95.7817 117.657 117.657 95.7817 117.657 68.8284C117.657 41.8751 95.7817 20 68.8284 20ZM91.4848 53.2033C90.7524 60.9182 87.5785 79.6683 85.9672 88.311C85.2836 91.9731 83.9164 93.1938 82.6469 93.3403C79.8148 93.5844 77.6664 91.4848 74.932 89.6782C70.6351 86.8461 68.1937 85.0883 64.0432 82.3539C59.2092 79.1801 62.3342 77.4222 65.1175 74.5902C65.8499 73.8578 78.35 62.4807 78.5941 61.4553C78.628 61.3 78.6235 61.1388 78.581 60.9856C78.5384 60.8325 78.4591 60.692 78.35 60.5764C78.057 60.3323 77.6664 60.4299 77.3246 60.4788C76.8851 60.5764 70.0491 65.1175 56.719 74.1019C54.7658 75.4203 53.008 76.1039 51.4455 76.055C49.6877 76.0062 46.3673 75.0785 43.8771 74.2484C40.8009 73.2718 38.4083 72.7347 38.6036 71.0257C38.7013 70.1468 39.922 69.2679 42.2169 68.3401C56.4748 62.1389 65.9475 58.0373 70.6839 56.0842C84.2582 50.4201 87.0414 49.4435 88.8969 49.4435C89.2875 49.4435 90.2153 49.5412 90.8012 50.0295C91.2895 50.4201 91.436 50.9572 91.4848 51.3479C91.436 51.6408 91.5336 52.5197 91.4848 53.2033Z" fill="#0056F9"></path></svg> 